<svg xmlns="http://www.w3.org/2000/svg" viewBox="147.456 247.808 737.28 462.848" version="1.1" style="max-height: 500px" width="737.28" height="462.848">
<path fill="#3486F1" d="m0 0h37l24 3 21 5 19 7 17 8 18 11 14 11 12 11 12 12 11 14 10 15 10 18 8 19 7 23 4 22 1 7v11l10-2h23l17 3 16 5 21 11 14 11 12 12 9 13 7 12 6 16 4 20v24l-3 18-6 18-8 15-10 13-11 11-14 10-19 9-13 4-20 3h-472l-26-3-17-4-17-6-15-8-11-8-10-9-9-9-10-15-7-15-4-13-3-17v-27l3-19 7-21 10-19 10-14 10-11 6-7 8-7 13-10 17-10 18-8 21-6 19-3h22l1-7 8-22 10-20 11-17 9-12 9-10 7-8 7-7 11-9 12-9 13-8 15-8 20-8 23-6z" transform="translate(506,269)"/>
<path fill="#43CCBD" d="m0 0h29l21 3 20 6 14 6 14 8 14 10 12 11 14 14 10 13 9 15 9 19 6 19 8 35 7 19 11 21 12 16 9 10 8 8 15 11 15 9 18 8 20 6 5 1v1h-313l-26-3-17-4-17-6-15-8-11-8-10-9-9-9-10-15-7-15-4-13-3-17v-27l3-19 7-21 10-19 10-14 10-11 6-7 8-7 13-10 17-10 18-8 21-6z" transform="translate(307,423)"/>
</svg>